<svg xmlns="http://www.w3.org/2000/svg" viewBox="0 0 48 48" width="512" height="512" fill="none">
  <path d="M12 16H36L33.6 41.6A3 3 0 0 1 30.6 44.4H17.4A3 3 0 0 1 14.4 41.6L12 16Z" fill="#c2925a" stroke="#1f3d28" stroke-width="2.6" stroke-linejoin="round"/>
  <path d="M18 16C18 9 20.4 6 24 6S30 9 30 16" fill="none" stroke="#1f3d28" stroke-width="2.6" stroke-linecap="round"/>
  <path d="M24 42V30" stroke="#2c4d34" stroke-width="2.2" stroke-linecap="round"/>
  <path d="M24 33C24 27.8 19.6 25 15 25C17.6 28.8 20.8 32 24 33Z" fill="#2c4d34"/>
  <path d="M24 36C24 31.2 28.4 28.6 33 28.6C30.6 32.4 27.2 35 24 36Z" fill="#3a6344"/>
  <circle cx="24" cy="20.5" r="1.9" fill="#9c1824"/>
</svg>
