<svg xmlns="http://www.w3.org/2000/svg" viewBox="0 0 48 48" width="48" height="48" fill="none">
  <rect width="48" height="48" rx="11" fill="#0b5c2e"/>
  <path d="M17.4 18C17.4 10.8 20 7.4 24 7.4S30.6 10.8 30.6 18" fill="none" stroke="#ffe9bd" stroke-width="3.4" stroke-linecap="round"/>
  <path d="M11.2 16.6H36.8L34.5 40.8A3.6 3.6 0 0 1 30.9 44H17.1A3.6 3.6 0 0 1 13.5 40.8L11.2 16.6Z" fill="#f79f1f" stroke="#ffe9bd" stroke-width="2.8" stroke-linejoin="round"/>
  <ellipse cx="24" cy="40" rx="9.6" ry="2.7" fill="#ffe9bd"/><ellipse cx="24" cy="39.5" rx="6.2" ry="1.5" fill="#eccf96"/><path d="M24 39.4V28.6" stroke="#0b5c2e" stroke-width="3" stroke-linecap="round"/>
  <path d="M24 32.4C24 26.2 18.9 23.5 13.9 23.8C16.6 28.4 20.3 31.6 24 32.4Z" fill="#0b5c2e"/>
  <path d="M24 36C24 30.4 28.7 27.7 33.9 28C31.2 32.6 27.5 35.3 24 36Z" fill="#17924a"/>
  <circle cx="24" cy="21.4" r="2.7" fill="#e8232f"/>
</svg>
